<?xml version="1.0" encoding="utf-8"?>
<!-- Generator: Adobe Illustrator 24.0.1, SVG Export Plug-In . SVG Version: 6.00 Build 0)  -->
<svg version="1.1" id="Layer_1" xmlns="http://www.w3.org/2000/svg" xmlns:xlink="http://www.w3.org/1999/xlink" x="0px" y="0px"
	 viewBox="0 0 150 150" style="enable-background:new 0 0 150 150;" xml:space="preserve">
<style type="text/css">
	.st0{display:none;}
	.st1{display:inline;}
	.st2{clip-path:url(#SVGID_2_);}
	.st3{fill:#FFFFFF;}
	.st4{font-family:'AGaramondPro-Regular';}
	.st5{font-size:30.9135px;}
	.st6{fill:#FF8C69;}
	.st7{opacity:0.5;fill:none;stroke:#FF8C69;stroke-width:5;stroke-miterlimit:10;enable-background:new    ;}
</style>
<g id="Layer_1_1_">
	<g class="st0">
		<g class="st1">
			<g>
				<g>
					<g>
						<g>
							<g>
								<defs>
									<rect id="SVGID_1_" x="2.9" y="2.9" width="144.3" height="144.3"/>
								</defs>
								<clipPath id="SVGID_2_">
									<use xlink:href="#SVGID_1_"  style="overflow:visible;"/>
								</clipPath>
								<g class="st2">
									
										<image style="overflow:visible;enable-background:new    ;" width="748" height="748" xlink:href="2022E01D681A2811.png"  transform="matrix(0.1929 0 0 0.1929 2.8684 2.8684)">
									</image>
								</g>
							</g>
						</g>
					</g>
				</g>
			</g>
		</g>
	</g>
	
		<image style="overflow:visible;enable-background:new    ;" width="700" height="701" xlink:href="2022E01D681A2813.png"  transform="matrix(0.2479 4.330182e-04 -4.317955e-04 0.2472 -7.0639 -5.7335)">
	</image>
	<text transform="matrix(1 0 0 1 19.5731 84.0164)" class="st3 st4 st5">vivian lin</text>
</g>
<path class="st6" d="M104.9,31.3c-0.1,0.1,0.2,0.5,0.6,2c0.3,1,0.5,1.9,0.6,2.5l0,0c0.2-0.8,0.3-1.6,0.3-1.7
	C106.6,32.8,105.1,31.1,104.9,31.3z"/>
<circle class="st7" cx="75.6" cy="75" r="68.8"/>
</svg>
